<?xml version="1.0" encoding="UTF-8"?>
<svg width="50px" height="50px" viewBox="0 0 50 50" version="1.1" xmlns="http://www.w3.org/2000/svg" xmlns:xlink="http://www.w3.org/1999/xlink">
    <!-- Generator: Sketch 62 (91390) - https://sketch.com -->
    <title>fieldhockey</title>
    <desc>Created with Sketch.</desc>
    <g id="fieldhockey" stroke="none" stroke-width="1" fill="none" fill-rule="evenodd">
        <g id="Group-4">
            <g id="Group-2" transform="translate(7.000000, 0.000000)" fill="#00A3EA" fill-rule="nonzero">
                <path d="M17.3076923,42.3076923 C15.1835202,42.3076923 13.4615385,44.029674 13.4615385,46.1538462 C13.4615385,48.2780183 15.1835202,50 17.3076923,50 C19.4318644,50 21.1538462,48.2780183 21.1538462,46.1538462 C21.151726,44.0305528 19.4309856,42.3098124 17.3076923,42.3076923 Z M18.5897436,46.1538462 C18.5897436,45.4457888 18.0157497,44.8717949 17.3076923,44.8717949 L17.3076923,43.5897436 C18.7238071,43.5897436 19.8717949,44.7377314 19.8717949,46.1538462 L18.5897436,46.1538462 Z" id="Shape-Copy"></path>
                <path d="M3.02015603,43.9817427 C2.06665972,43.6109805 1.32696196,42.836059 1.00092527,41.8663581 L0.0605406502,39.0461658 C-0.0591210958,38.6880937 0.000714900205,38.2943234 0.221341927,37.9879605 C0.441968954,37.6815976 0.796464743,37.5000111 1.17400219,37.5000111 L1.46246373,37.5000111 C1.59005879,37.499784 1.7125111,37.550287 1.80284834,37.6403965 C2.16827796,38.0031285 2.57790707,38.3184267 3.02207911,38.5788581 L3.02015603,43.9817427 Z M7.82784834,44.2307811 L4.94323296,44.2240504 L4.94323296,39.3115504 C5.32565338,39.3856306 5.71428036,39.42298 6.10380988,39.4230888 L7.82784834,39.4230888 L7.82784834,44.2307811 Z M31.593233,38.5788581 C32.037405,38.3184267 32.4470341,38.0031285 32.8124637,37.6403965 C32.902801,37.550287 33.0252533,37.499784 33.1528483,37.5000111 L33.4413099,37.5000111 C33.8183768,37.5002321 34.1723915,37.681547 34.3929242,37.987398 C34.6134569,38.2932491 34.6736665,38.686411 34.5547714,39.0442427 L33.6143868,41.864435 C33.2883501,42.8341359 32.5486523,43.6090574 31.595156,43.9798196 L31.593233,38.5788581 Z M26.7855407,39.4230888 L28.5095791,39.4230888 C28.8991086,39.42298 29.2877356,39.3856306 29.670156,39.3115504 L29.670156,44.2307811 L26.7855407,44.2307811 L26.7855407,39.4230888 Z M12.8134253,40.2884735 C12.432069,41.9019252 11.289689,43.2290229 9.75092527,43.8461658 L9.75092527,39.089435 C10.1377934,38.8376667 10.415022,38.448791 10.5268868,38.0009735 L10.968233,36.5384735 L13.930733,36.5384735 L12.8134253,40.2884735 Z M14.5018868,34.6153965 L11.5490022,34.6153965 L12.1259253,32.6923196 L15.070156,32.6923196 L14.5018868,34.6153965 Z M17.5249637,25.9278965 L17.2490022,25.0000119 L20.1605407,25.0000119 L20.7374637,26.9230888 L17.8211176,26.9230888 L17.5249637,25.9278965 Z M16.6759253,23.076935 L16.0990022,21.1538581 L18.995156,21.1538581 L19.5720791,23.076935 L16.6759253,23.076935 Z M24.0720791,37.9452042 C24.1836734,38.4107921 24.4656726,38.8176669 24.8624637,39.0855888 L24.8624637,43.8461658 C23.3123246,43.2170304 22.1647438,41.8736437 21.7855407,40.2442427 L20.6836176,36.5384735 L23.6470791,36.5384735 L24.0720791,37.9452042 Z M23.0643868,34.6153965 L20.1115022,34.6153965 L19.5393868,32.6923196 L22.4836176,32.6923196 L23.0643868,34.6153965 Z M21.3240022,28.8461658 L21.9009253,30.7692427 L18.9663099,30.7692427 L18.3941945,28.8461658 L21.3240022,28.8461658 Z M21.7143868,0.961550376 C21.9482567,0.27766572 22.6804457,-0.0994834438 23.3730368,0.107183027 C24.0656278,0.313849497 24.4714117,1.03056541 24.2922714,1.73078115 L21.657656,10.576935 L18.8086176,10.576935 L21.7143868,0.961550376 Z M21.0855407,12.5000119 L20.2268868,15.3846273 L19.2653483,15.3846273 L18.3941945,12.5000119 L21.0855407,12.5000119 Z M17.8374637,17.3077042 L18.4143868,19.2307811 L15.5297714,19.2307811 L14.957656,17.3077042 L17.8374637,17.3077042 Z M15.818233,26.9230888 L13.8759253,26.9230888 L14.4528483,25.0000119 L15.2422714,25.0000119 L15.818233,26.9230888 Z M11.270156,4.91635807 L10.3211176,1.73078115 C10.298156,1.6467838 10.2830272,1.56083948 10.2759253,1.47405038 C10.237506,1.09673007 10.3609692,0.720825146 10.6156289,0.439764472 C10.8702886,0.158703797 11.2322327,-0.00112159687 11.6115022,5.92567836e-06 C11.7572455,-0.000144526091 11.9020579,0.0232332604 12.0403483,0.0692426835 C12.4555863,0.207856129 12.7764471,0.54129275 12.8990022,0.961550376 L14.1153483,4.98943499 L15.8047714,10.576935 L12.9547714,10.576935 L11.270156,4.91635807 Z M13.5278483,12.5000119 L16.3855407,12.5000119 L17.257656,15.3846273 L14.3865022,15.3846273 L13.5278483,12.5000119 Z M16.220156,28.8461658 L15.6480407,30.7692427 L12.7105407,30.7692427 L13.2874637,28.8461658 L16.220156,28.8461658 Z" id="Shape"></path>
            </g>
            <rect id="Rectangle-Copy" x="0" y="0" width="50" height="50"></rect>
        </g>
    </g>
</svg>